<?xml version="1.0" encoding="utf-8"?>
<!-- Generator: Adobe Illustrator 25.0.0, SVG Export Plug-In . SVG Version: 6.00 Build 0)  -->
<svg version="1.1" xmlns="http://www.w3.org/2000/svg" xmlns:xlink="http://www.w3.org/1999/xlink" x="0px" y="0px"
	 viewBox="0 0 1000 1000" style="enable-background:new 0 0 1000 1000;" xml:space="preserve">
<style type="text/css">
	.st0{fill:#800080;}
</style>
<g id="Your_design">
</g>
<g id="Guides">
	<path class="st0" d="M591.23,360.43v-77.49l-48.35,16.97V200L360.43,367.2v0v265.61v0L542.88,800v-99.91l48.35,16.97v-77.49h48.35
		V360.43H591.23z M518.7,745.06l-94.54-86.64l94.54,33.18V745.06z M518.7,665.99l-75.26-26.41h75.26V665.99z M518.7,615.4H384.6
		V384.6h134.1V615.4z M518.7,360.43h-75.26l75.26-26.41V360.43z M518.7,308.39l-94.54,33.18l94.54-86.64V308.39z M567.05,682.96
		l-24.17-8.48v-34.9h24.17V682.96z M567.05,615.4h-24.17V384.6h24.17V615.4z M567.05,360.43h-24.17v-34.9l24.17-8.48V360.43z
		 M615.4,615.4h-24.17V384.6h24.17V615.4z"/>
</g>
</svg>
